<?xml version="1.0" encoding="UTF-8"?>
<svg id="Capa_2" data-name="Capa 2" xmlns="http://www.w3.org/2000/svg" viewBox="0 0 262.61 124">
  <defs>
    <style>
      .cls-1 {
        fill: #1d1d1b;
      }

      .cls-2 {
        fill: #bace10;
      }
    </style>
  </defs>
  <g id="Capa_1-2" data-name="Capa 1">
    <rect class="cls-2" x="0" y="0" width="262.61" height="124" rx="62" ry="62"/>
    <path class="cls-1" d="M200.71,29.57h0c-15.25,0-28.03,10.53-31.49,24.71h-75.22c-3.46-14.18-16.25-24.71-31.49-24.71h0c-17.91,0-32.43,14.52-32.43,32.43h0c0,17.91,14.52,32.43,32.43,32.43h0c14.11,0,26.11-9.02,30.57-21.6h77.07c4.46,12.58,16.46,21.6,30.57,21.6h0c17.91,0,32.43-14.52,32.43-32.43h0c0-17.91-14.52-32.43-32.43-32.43Z"/>
  </g>
</svg>